# xmcd
#
# Track frame offsets: 
#        150
#        7171
#        16209
#        32095
#        42635
#        56033
#        67759
#        78384
#        91892
#        100593
#        114948
#        123884
#
# Disc length: 1805 seconds
#
# Revision: 6
# Processed by: cddbd v1.5.1PL2 Copyright (c) Steve Scherf et al.
# Submitted via: ExactAudioCopy v0.95b3
#
DISCID=8c070b0c
DTITLE=The Hives - Tyrannosaurus Hives
DYEAR=2004
DGENRE=Rock
TTITLE0=Abra Cadaver
TTITLE1=Two-Timing Touch and Broken Bones
TTITLE2=Walk Idiot Walk
TTITLE3=No Pun Intended
TTITLE4=A Little More for Little You
TTITLE5=B Is for Brutus
TTITLE6=See Through Head
TTITLE7=Diabolic Scheme
TTITLE8=Missing Link
TTITLE9=Love in Plaster
TTITLE10=Dead Quote Olympics
TTITLE11=Antidote
EXTD=YEAR: 2004
EXTT0=
EXTT1=
EXTT2=
EXTT3=
EXTT4=
EXTT5=
EXTT6=
EXTT7=
EXTT8=
EXTT9=
EXTT10=
EXTT11=
PLAYORDER=
